<svg width="87" height="87" viewBox="0 0 87 87" fill="none" xmlns="http://www.w3.org/2000/svg">
<path d="M43.5 29V43.5M43.5 58H43.5363M7.25 30.8949V56.1051C7.25 56.9917 7.25 57.435 7.35016 57.8522C7.43896 58.2221 7.58543 58.5757 7.78418 58.9C8.00836 59.2659 8.32183 59.5793 8.94878 60.2063L26.7937 78.0512C27.4207 78.6782 27.7341 78.9916 28.1 79.2158C28.4243 79.4146 28.7779 79.561 29.1478 79.6498C29.565 79.75 30.0083 79.75 30.8949 79.75H56.1051C56.9917 79.75 57.435 79.75 57.8522 79.6498C58.2221 79.561 58.5757 79.4146 58.9 79.2158C59.2659 78.9916 59.5793 78.6782 60.2063 78.0512L78.0512 60.2063C78.6782 59.5793 78.9916 59.2659 79.2158 58.9C79.4146 58.5757 79.561 58.2221 79.6498 57.8522C79.75 57.435 79.75 56.9917 79.75 56.1051V30.8949C79.75 30.0083 79.75 29.565 79.6498 29.1478C79.561 28.7779 79.4146 28.4243 79.2158 28.1C78.9916 27.7341 78.6782 27.4207 78.0512 26.7937L60.2063 8.94878C59.5793 8.32183 59.2659 8.00836 58.9 7.78418C58.5757 7.58543 58.2221 7.43896 57.8522 7.35016C57.435 7.25 56.9917 7.25 56.1051 7.25H30.8949C30.0083 7.25 29.565 7.25 29.1478 7.35016C28.7779 7.43896 28.4243 7.58543 28.1 7.78418C27.7341 8.00836 27.4207 8.32183 26.7937 8.94878L8.94878 26.7937C8.32183 27.4207 8.00836 27.7341 7.78418 28.1C7.58543 28.4243 7.43896 28.7779 7.35016 29.1478C7.25 29.565 7.25 30.0083 7.25 30.8949Z" stroke="black" stroke-width="3" stroke-linecap="round" stroke-linejoin="round"/>
</svg>
