<svg width="410" height="192" viewBox="0 0 410 192" fill="none" xmlns="http://www.w3.org/2000/svg">
<g filter="url(#filter0_d_200_1348)">
<rect x="4.5" y="0.5" width="401" height="183" rx="12.5" fill="white" stroke="black"/>
<path d="M204.5 40.3334V49.5M204.5 58.6667H204.523M181.583 41.5313V57.4688C181.583 58.0293 181.583 58.3095 181.647 58.5733C181.703 58.8071 181.795 59.0307 181.921 59.2357C182.063 59.467 182.261 59.6651 182.657 60.0615L193.939 71.3428C194.335 71.7391 194.533 71.9373 194.764 72.079C194.969 72.2047 195.193 72.2973 195.427 72.3534C195.691 72.4167 195.971 72.4167 196.531 72.4167H212.469C213.029 72.4167 213.309 72.4167 213.573 72.3534C213.807 72.2973 214.031 72.2047 214.236 72.079C214.467 71.9373 214.665 71.7391 215.061 71.3428L226.343 60.0615C226.739 59.6651 226.937 59.467 227.079 59.2357C227.205 59.0307 227.297 58.8071 227.353 58.5733C227.417 58.3095 227.417 58.0293 227.417 57.4688V41.5313C227.417 40.9708 227.417 40.6905 227.353 40.4268C227.297 40.193 227.205 39.9694 227.079 39.7644C226.937 39.5331 226.739 39.3349 226.343 38.9386L215.061 27.6573C214.665 27.261 214.467 27.0628 214.236 26.9211C214.031 26.7954 213.807 26.7028 213.573 26.6467C213.309 26.5834 213.029 26.5834 212.469 26.5834H196.531C195.971 26.5834 195.691 26.5834 195.427 26.6467C195.193 26.7028 194.969 26.7954 194.764 26.9211C194.533 27.0628 194.335 27.261 193.939 27.6573L182.657 38.9386C182.261 39.3349 182.063 39.5331 181.921 39.7644C181.795 39.9694 181.703 40.193 181.647 40.4268C181.583 40.6905 181.583 40.9708 181.583 41.5313Z" stroke="#F81313" stroke-width="3" stroke-linecap="round" stroke-linejoin="round"/>
<path d="M30.4231 108V99.2727H33.6958C34.3662 99.2727 34.9287 99.3977 35.3833 99.6477C35.8407 99.8977 36.1859 100.241 36.4188 100.679C36.6546 101.114 36.7725 101.608 36.7725 102.162C36.7725 102.722 36.6546 103.219 36.4188 103.653C36.183 104.088 35.835 104.43 35.3748 104.68C34.9145 104.928 34.3478 105.051 33.6745 105.051H31.5055V103.751H33.4614C33.8535 103.751 34.1745 103.683 34.4245 103.547C34.6745 103.411 34.8591 103.223 34.9785 102.984C35.1006 102.746 35.1617 102.472 35.1617 102.162C35.1617 101.852 35.1006 101.58 34.9785 101.344C34.8591 101.108 34.6731 100.925 34.4202 100.794C34.1702 100.661 33.8478 100.594 33.4529 100.594H32.004V108H30.4231ZM40.2039 108.132C39.7891 108.132 39.4155 108.058 39.0831 107.911C38.7536 107.76 38.4922 107.538 38.299 107.246C38.1087 106.953 38.0135 106.592 38.0135 106.163C38.0135 105.794 38.0817 105.489 38.2181 105.247C38.3544 105.006 38.5405 104.812 38.7763 104.668C39.0121 104.523 39.2777 104.413 39.5732 104.339C39.8715 104.263 40.1797 104.207 40.4979 104.173C40.8814 104.134 41.1925 104.098 41.4311 104.067C41.6698 104.033 41.8431 103.982 41.951 103.913C42.0618 103.842 42.1172 103.733 42.1172 103.585V103.56C42.1172 103.239 42.0221 102.99 41.8317 102.814C41.6414 102.638 41.3672 102.55 41.0093 102.55C40.6314 102.55 40.3317 102.632 40.1101 102.797C39.8914 102.962 39.7436 103.156 39.6669 103.381L38.2266 103.176C38.3402 102.778 38.5277 102.446 38.7891 102.179C39.0505 101.909 39.3701 101.707 39.7479 101.574C40.1258 101.438 40.5434 101.369 41.0008 101.369C41.3161 101.369 41.63 101.406 41.9425 101.48C42.255 101.554 42.5405 101.676 42.799 101.847C43.0576 102.014 43.265 102.243 43.4212 102.533C43.5803 102.822 43.6598 103.185 43.6598 103.619V108H42.1769V107.101H42.1258C42.032 107.283 41.8999 107.453 41.7294 107.612C41.5618 107.768 41.3502 107.895 41.0945 107.991C40.8417 108.085 40.5448 108.132 40.2039 108.132ZM40.6044 106.999C40.9141 106.999 41.1826 106.937 41.4098 106.815C41.6371 106.69 41.8118 106.526 41.934 106.321C42.059 106.116 42.1215 105.893 42.1215 105.652V104.881C42.0732 104.92 41.9908 104.957 41.8743 104.991C41.7607 105.026 41.6329 105.055 41.4908 105.081C41.3488 105.107 41.2081 105.129 41.0689 105.149C40.9297 105.169 40.809 105.186 40.7067 105.2C40.4766 105.232 40.2706 105.283 40.0888 105.354C39.907 105.425 39.7635 105.524 39.6584 105.652C39.5533 105.777 39.5008 105.939 39.5008 106.138C39.5008 106.422 39.6044 106.636 39.8118 106.781C40.0192 106.926 40.2834 106.999 40.6044 106.999ZM50.7443 103.185L49.338 103.338C49.2983 103.196 49.2287 103.062 49.1292 102.938C49.0326 102.812 48.9019 102.712 48.7372 102.635C48.5724 102.558 48.3707 102.52 48.1321 102.52C47.811 102.52 47.5412 102.589 47.3224 102.729C47.1065 102.868 47 103.048 47.0028 103.27C47 103.46 47.0696 103.615 47.2116 103.734C47.3565 103.854 47.5951 103.952 47.9275 104.028L49.044 104.267C49.6633 104.401 50.1235 104.612 50.4247 104.902C50.7287 105.192 50.8821 105.571 50.8849 106.04C50.8821 106.452 50.7613 106.815 50.5227 107.131C50.2869 107.443 49.9588 107.687 49.5383 107.864C49.1179 108.04 48.6349 108.128 48.0894 108.128C47.2883 108.128 46.6434 107.96 46.1548 107.625C45.6662 107.287 45.375 106.817 45.2812 106.214L46.7855 106.07C46.8537 106.365 46.9985 106.588 47.2201 106.739C47.4417 106.889 47.7301 106.964 48.0852 106.964C48.4517 106.964 48.7457 106.889 48.9673 106.739C49.1917 106.588 49.3039 106.402 49.3039 106.18C49.3039 105.993 49.2315 105.838 49.0866 105.716C48.9446 105.594 48.723 105.5 48.4218 105.435L47.3054 105.2C46.6775 105.07 46.213 104.849 45.9119 104.54C45.6108 104.227 45.4616 103.832 45.4644 103.355C45.4616 102.952 45.571 102.602 45.7926 102.307C46.017 102.009 46.3281 101.778 46.7258 101.616C47.1264 101.452 47.588 101.369 48.1108 101.369C48.8778 101.369 49.4815 101.533 49.9218 101.859C50.365 102.186 50.6392 102.628 50.7443 103.185ZM57.6902 103.185L56.284 103.338C56.2442 103.196 56.1746 103.062 56.0752 102.938C55.9786 102.812 55.8479 102.712 55.6831 102.635C55.5183 102.558 55.3166 102.52 55.078 102.52C54.757 102.52 54.4871 102.589 54.2683 102.729C54.0524 102.868 53.9459 103.048 53.9487 103.27C53.9459 103.46 54.0155 103.615 54.1575 103.734C54.3024 103.854 54.5411 103.952 54.8735 104.028L55.9899 104.267C56.6092 104.401 57.0695 104.612 57.3706 104.902C57.6746 105.192 57.828 105.571 57.8308 106.04C57.828 106.452 57.7073 106.815 57.4686 107.131C57.2328 107.443 56.9047 107.687 56.4842 107.864C56.0638 108.04 55.5808 108.128 55.0354 108.128C54.2342 108.128 53.5894 107.96 53.1007 107.625C52.6121 107.287 52.3209 106.817 52.2271 106.214L53.7314 106.07C53.7996 106.365 53.9445 106.588 54.1661 106.739C54.3877 106.889 54.676 106.964 55.0311 106.964C55.3976 106.964 55.6916 106.889 55.9132 106.739C56.1377 106.588 56.2499 106.402 56.2499 106.18C56.2499 105.993 56.1774 105.838 56.0325 105.716C55.8905 105.594 55.6689 105.5 55.3678 105.435L54.2513 105.2C53.6235 105.07 53.159 104.849 52.8578 104.54C52.5567 104.227 52.4075 103.832 52.4104 103.355C52.4075 102.952 52.5169 102.602 52.7385 102.307C52.9629 102.009 53.274 101.778 53.6717 101.616C54.0723 101.452 54.534 101.369 55.0567 101.369C55.8237 101.369 56.4274 101.533 56.8678 101.859C57.311 102.186 57.5851 102.628 57.6902 103.185ZM60.8137 108L58.9643 101.455H60.5367L61.6873 106.057H61.7469L62.9231 101.455H64.4785L65.6546 106.031H65.7185L66.8521 101.455H68.4288L66.5751 108H64.9685L63.7413 103.577H63.6518L62.4245 108H60.8137ZM72.5334 108.128C71.8942 108.128 71.3403 107.987 70.8715 107.706C70.4028 107.425 70.0391 107.031 69.7806 106.526C69.5249 106.02 69.3971 105.429 69.3971 104.753C69.3971 104.077 69.5249 103.484 69.7806 102.976C70.0391 102.467 70.4028 102.072 70.8715 101.791C71.3403 101.51 71.8942 101.369 72.5334 101.369C73.1726 101.369 73.7266 101.51 74.1954 101.791C74.6641 102.072 75.0263 102.467 75.282 102.976C75.5405 103.484 75.6698 104.077 75.6698 104.753C75.6698 105.429 75.5405 106.02 75.282 106.526C75.0263 107.031 74.6641 107.425 74.1954 107.706C73.7266 107.987 73.1726 108.128 72.5334 108.128ZM72.542 106.892C72.8885 106.892 73.1783 106.797 73.4113 106.607C73.6442 106.413 73.8175 106.155 73.9312 105.831C74.0476 105.507 74.1059 105.146 74.1059 104.749C74.1059 104.348 74.0476 103.986 73.9312 103.662C73.8175 103.335 73.6442 103.075 73.4113 102.882C73.1783 102.689 72.8885 102.592 72.542 102.592C72.1868 102.592 71.8914 102.689 71.6556 102.882C71.4226 103.075 71.2479 103.335 71.1314 103.662C71.0178 103.986 70.961 104.348 70.961 104.749C70.961 105.146 71.0178 105.507 71.1314 105.831C71.2479 106.155 71.4226 106.413 71.6556 106.607C71.8914 106.797 72.1868 106.892 72.542 106.892ZM77.3391 108V101.455H78.8348V102.545H78.903C79.0223 102.168 79.2269 101.876 79.5167 101.672C79.8093 101.464 80.1431 101.361 80.5181 101.361C80.6033 101.361 80.6985 101.365 80.8036 101.374C80.9115 101.379 81.001 101.389 81.0721 101.403V102.822C81.0067 102.8 80.903 102.78 80.761 102.763C80.6218 102.743 80.4868 102.733 80.3561 102.733C80.0749 102.733 79.8221 102.794 79.5976 102.916C79.376 103.036 79.2013 103.202 79.0735 103.415C78.9456 103.628 78.8817 103.874 78.8817 104.152V108H77.3391ZM84.6164 108.115C84.1022 108.115 83.6419 107.983 83.2357 107.719C82.8294 107.455 82.5084 107.071 82.2726 106.568C82.0368 106.065 81.9189 105.455 81.9189 104.736C81.9189 104.009 82.0382 103.395 82.2769 102.895C82.5184 102.392 82.8436 102.013 83.2527 101.757C83.6618 101.499 84.1178 101.369 84.6206 101.369C85.0042 101.369 85.3195 101.435 85.5667 101.565C85.8138 101.693 86.0098 101.848 86.1547 102.03C86.2996 102.209 86.4118 102.378 86.4914 102.537H86.5553V99.2727H88.1022V108H86.5851V106.969H86.4914C86.4118 107.128 86.2968 107.297 86.1462 107.476C85.9956 107.652 85.7968 107.803 85.5496 107.928C85.3024 108.053 84.9914 108.115 84.6164 108.115ZM85.0468 106.849C85.3735 106.849 85.6519 106.761 85.882 106.585C86.1121 106.406 86.2868 106.158 86.4061 105.839C86.5255 105.521 86.5851 105.151 86.5851 104.727C86.5851 104.304 86.5255 103.936 86.4061 103.624C86.2897 103.311 86.1164 103.068 85.8863 102.895C85.659 102.722 85.3792 102.635 85.0468 102.635C84.703 102.635 84.4161 102.724 84.186 102.903C83.9559 103.082 83.7826 103.33 83.6661 103.645C83.5496 103.96 83.4914 104.321 83.4914 104.727C83.4914 105.136 83.5496 105.501 83.6661 105.822C83.7854 106.141 83.9601 106.392 84.1902 106.577C84.4232 106.759 84.7087 106.849 85.0468 106.849ZM95.3261 108.132C94.9113 108.132 94.5377 108.058 94.2053 107.911C93.8758 107.76 93.6144 107.538 93.4212 107.246C93.2309 106.953 93.1357 106.592 93.1357 106.163C93.1357 105.794 93.2039 105.489 93.3403 105.247C93.4766 105.006 93.6627 104.812 93.8985 104.668C94.1343 104.523 94.3999 104.413 94.6954 104.339C94.9937 104.263 95.3019 104.207 95.6201 104.173C96.0036 104.134 96.3147 104.098 96.5533 104.067C96.792 104.033 96.9653 103.982 97.0732 103.913C97.184 103.842 97.2394 103.733 97.2394 103.585V103.56C97.2394 103.239 97.1443 102.99 96.9539 102.814C96.7636 102.638 96.4894 102.55 96.1315 102.55C95.7536 102.55 95.4539 102.632 95.2323 102.797C95.0136 102.962 94.8658 103.156 94.7891 103.381L93.3488 103.176C93.4624 102.778 93.6499 102.446 93.9113 102.179C94.1727 101.909 94.4923 101.707 94.8701 101.574C95.2479 101.438 95.6656 101.369 96.1229 101.369C96.4383 101.369 96.7522 101.406 97.0647 101.48C97.3772 101.554 97.6627 101.676 97.9212 101.847C98.1798 102.014 98.3871 102.243 98.5434 102.533C98.7025 102.822 98.782 103.185 98.782 103.619V108H97.2991V107.101H97.2479C97.1542 107.283 97.0221 107.453 96.8516 107.612C96.684 107.768 96.4724 107.895 96.2167 107.991C95.9639 108.085 95.667 108.132 95.3261 108.132ZM95.7266 106.999C96.0363 106.999 96.3048 106.937 96.532 106.815C96.7593 106.69 96.934 106.526 97.0562 106.321C97.1812 106.116 97.2437 105.893 97.2437 105.652V104.881C97.1954 104.92 97.113 104.957 96.9965 104.991C96.8829 105.026 96.755 105.055 96.613 105.081C96.471 105.107 96.3303 105.129 96.1911 105.149C96.0519 105.169 95.9312 105.186 95.8289 105.2C95.5988 105.232 95.3928 105.283 95.211 105.354C95.0292 105.425 94.8857 105.524 94.7806 105.652C94.6755 105.777 94.6229 105.939 94.6229 106.138C94.6229 106.422 94.7266 106.636 94.934 106.781C95.1414 106.926 95.4056 106.999 95.7266 106.999ZM102.236 104.165V108H100.693V101.455H102.168V102.567H102.244C102.395 102.2 102.635 101.909 102.964 101.693C103.297 101.477 103.707 101.369 104.196 101.369C104.648 101.369 105.041 101.466 105.376 101.659C105.714 101.852 105.976 102.132 106.16 102.499C106.348 102.865 106.44 103.31 106.437 103.832V108H104.895V104.071C104.895 103.634 104.781 103.291 104.554 103.044C104.33 102.797 104.018 102.673 103.621 102.673C103.351 102.673 103.111 102.733 102.901 102.852C102.693 102.969 102.53 103.138 102.41 103.359C102.294 103.581 102.236 103.849 102.236 104.165ZM110.795 108.115C110.28 108.115 109.82 107.983 109.414 107.719C109.008 107.455 108.687 107.071 108.451 106.568C108.215 106.065 108.097 105.455 108.097 104.736C108.097 104.009 108.217 103.395 108.455 102.895C108.697 102.392 109.022 102.013 109.431 101.757C109.84 101.499 110.296 101.369 110.799 101.369C111.182 101.369 111.498 101.435 111.745 101.565C111.992 101.693 112.188 101.848 112.333 102.03C112.478 102.209 112.59 102.378 112.67 102.537H112.734V99.2727H114.28V108H112.763V106.969H112.67C112.59 107.128 112.475 107.297 112.324 107.476C112.174 107.652 111.975 107.803 111.728 107.928C111.481 108.053 111.17 108.115 110.795 108.115ZM111.225 106.849C111.552 106.849 111.83 106.761 112.06 106.585C112.29 106.406 112.465 106.158 112.584 105.839C112.704 105.521 112.763 105.151 112.763 104.727C112.763 104.304 112.704 103.936 112.584 103.624C112.468 103.311 112.295 103.068 112.065 102.895C111.837 102.722 111.557 102.635 111.225 102.635C110.881 102.635 110.594 102.724 110.364 102.903C110.134 103.082 109.961 103.33 109.844 103.645C109.728 103.96 109.67 104.321 109.67 104.727C109.67 105.136 109.728 105.501 109.844 105.822C109.964 106.141 110.138 106.392 110.369 106.577C110.601 106.759 110.887 106.849 111.225 106.849ZM118.168 108.132C117.753 108.132 117.379 108.058 117.047 107.911C116.717 107.76 116.456 107.538 116.263 107.246C116.073 106.953 115.977 106.592 115.977 106.163C115.977 105.794 116.046 105.489 116.182 105.247C116.318 105.006 116.504 104.812 116.74 104.668C116.976 104.523 117.242 104.413 117.537 104.339C117.835 104.263 118.144 104.207 118.462 104.173C118.845 104.134 119.156 104.098 119.395 104.067C119.634 104.033 119.807 103.982 119.915 103.913C120.026 103.842 120.081 103.733 120.081 103.585V103.56C120.081 103.239 119.986 102.99 119.796 102.814C119.605 102.638 119.331 102.55 118.973 102.55C118.595 102.55 118.296 102.632 118.074 102.797C117.855 102.962 117.708 103.156 117.631 103.381L116.191 103.176C116.304 102.778 116.492 102.446 116.753 102.179C117.014 101.909 117.334 101.707 117.712 101.574C118.09 101.438 118.507 101.369 118.965 101.369C119.28 101.369 119.594 101.406 119.906 101.48C120.219 101.554 120.504 101.676 120.763 101.847C121.021 102.014 121.229 102.243 121.385 102.533C121.544 102.822 121.624 103.185 121.624 103.619V108H120.141V107.101H120.09C119.996 107.283 119.864 107.453 119.693 107.612C119.526 107.768 119.314 107.895 119.058 107.991C118.806 108.085 118.509 108.132 118.168 108.132ZM118.568 106.999C118.878 106.999 119.146 106.937 119.374 106.815C119.601 106.69 119.776 106.526 119.898 106.321C120.023 106.116 120.085 105.893 120.085 105.652V104.881C120.037 104.92 119.955 104.957 119.838 104.991C119.725 105.026 119.597 105.055 119.455 105.081C119.313 105.107 119.172 105.129 119.033 105.149C118.894 105.169 118.773 105.186 118.671 105.2C118.441 105.232 118.235 105.283 118.053 105.354C117.871 105.425 117.727 105.524 117.622 105.652C117.517 105.777 117.465 105.939 117.465 106.138C117.465 106.422 117.568 106.636 117.776 106.781C117.983 106.926 118.247 106.999 118.568 106.999ZM130.14 101.455V102.648H126.377V101.455H130.14ZM127.306 99.8864H128.849V106.031C128.849 106.239 128.88 106.398 128.942 106.509C129.008 106.616 129.093 106.69 129.198 106.73C129.303 106.77 129.42 106.79 129.548 106.79C129.644 106.79 129.732 106.783 129.812 106.768C129.894 106.754 129.957 106.741 129.999 106.73L130.259 107.936C130.177 107.964 130.059 107.996 129.906 108.03C129.755 108.064 129.57 108.084 129.352 108.089C128.965 108.101 128.617 108.043 128.308 107.915C127.998 107.784 127.752 107.582 127.57 107.31C127.391 107.037 127.303 106.696 127.306 106.287V99.8864ZM134.617 108.128C133.961 108.128 133.394 107.991 132.917 107.719C132.443 107.443 132.078 107.054 131.822 106.551C131.566 106.045 131.438 105.45 131.438 104.766C131.438 104.092 131.566 103.501 131.822 102.993C132.081 102.482 132.441 102.084 132.904 101.8C133.367 101.513 133.911 101.369 134.536 101.369C134.94 101.369 135.321 101.435 135.679 101.565C136.039 101.693 136.358 101.892 136.633 102.162C136.911 102.432 137.13 102.776 137.289 103.193C137.448 103.608 137.528 104.102 137.528 104.676V105.149H132.163V104.109H136.049C136.046 103.814 135.983 103.551 135.858 103.321C135.733 103.088 135.558 102.905 135.333 102.771C135.112 102.638 134.853 102.571 134.558 102.571C134.242 102.571 133.965 102.648 133.727 102.801C133.488 102.952 133.302 103.151 133.169 103.398C133.038 103.642 132.971 103.911 132.968 104.203V105.111C132.968 105.491 133.038 105.818 133.177 106.091C133.316 106.361 133.511 106.568 133.761 106.713C134.011 106.855 134.304 106.926 134.639 106.926C134.863 106.926 135.066 106.895 135.248 106.832C135.43 106.767 135.588 106.672 135.721 106.547C135.855 106.422 135.956 106.267 136.024 106.082L137.464 106.244C137.373 106.625 137.2 106.957 136.944 107.241C136.691 107.523 136.367 107.741 135.973 107.898C135.578 108.051 135.126 108.128 134.617 108.128ZM140.736 99.2727V108H139.193V99.2727H140.736ZM144.565 108.132C144.151 108.132 143.777 108.058 143.445 107.911C143.115 107.76 142.854 107.538 142.661 107.246C142.47 106.953 142.375 106.592 142.375 106.163C142.375 105.794 142.443 105.489 142.58 105.247C142.716 105.006 142.902 104.812 143.138 104.668C143.374 104.523 143.639 104.413 143.935 104.339C144.233 104.263 144.541 104.207 144.859 104.173C145.243 104.134 145.554 104.098 145.793 104.067C146.031 104.033 146.205 103.982 146.313 103.913C146.423 103.842 146.479 103.733 146.479 103.585V103.56C146.479 103.239 146.384 102.99 146.193 102.814C146.003 102.638 145.729 102.55 145.371 102.55C144.993 102.55 144.693 102.632 144.472 102.797C144.253 102.962 144.105 103.156 144.029 103.381L142.588 103.176C142.702 102.778 142.889 102.446 143.151 102.179C143.412 101.909 143.732 101.707 144.109 101.574C144.487 101.438 144.905 101.369 145.362 101.369C145.678 101.369 145.992 101.406 146.304 101.48C146.617 101.554 146.902 101.676 147.161 101.847C147.419 102.014 147.627 102.243 147.783 102.533C147.942 102.822 148.021 103.185 148.021 103.619V108H146.538V107.101H146.487C146.394 107.283 146.261 107.453 146.091 107.612C145.923 107.768 145.712 107.895 145.456 107.991C145.203 108.085 144.906 108.132 144.565 108.132ZM144.966 106.999C145.276 106.999 145.544 106.937 145.771 106.815C145.999 106.69 146.173 106.526 146.296 106.321C146.421 106.116 146.483 105.893 146.483 105.652V104.881C146.435 104.92 146.352 104.957 146.236 104.991C146.122 105.026 145.994 105.055 145.852 105.081C145.71 105.107 145.57 105.129 145.431 105.149C145.291 105.169 145.171 105.186 145.068 105.2C144.838 105.232 144.632 105.283 144.45 105.354C144.269 105.425 144.125 105.524 144.02 105.652C143.915 105.777 143.862 105.939 143.862 106.138C143.862 106.422 143.966 106.636 144.173 106.781C144.381 106.926 144.645 106.999 144.966 106.999ZM151.475 104.165V108H149.933V99.2727H151.441V102.567H151.518C151.671 102.197 151.908 101.906 152.229 101.693C152.553 101.477 152.965 101.369 153.465 101.369C153.92 101.369 154.316 101.464 154.654 101.655C154.992 101.845 155.254 102.124 155.438 102.49C155.626 102.857 155.719 103.304 155.719 103.832V108H154.177V104.071C154.177 103.631 154.063 103.288 153.836 103.044C153.612 102.797 153.296 102.673 152.89 102.673C152.617 102.673 152.373 102.733 152.157 102.852C151.944 102.969 151.776 103.138 151.654 103.359C151.535 103.581 151.475 103.849 151.475 104.165ZM163.417 108.115C162.903 108.115 162.443 107.983 162.037 107.719C161.631 107.455 161.309 107.071 161.074 106.568C160.838 106.065 160.72 105.455 160.72 104.736C160.72 104.009 160.839 103.395 161.078 102.895C161.319 102.392 161.645 102.013 162.054 101.757C162.463 101.499 162.919 101.369 163.422 101.369C163.805 101.369 164.121 101.435 164.368 101.565C164.615 101.693 164.811 101.848 164.956 102.03C165.101 102.209 165.213 102.378 165.292 102.537H165.356V99.2727H166.903V108H165.386V106.969H165.292C165.213 107.128 165.098 107.297 164.947 107.476C164.797 107.652 164.598 107.803 164.351 107.928C164.104 108.053 163.792 108.115 163.417 108.115ZM163.848 106.849C164.175 106.849 164.453 106.761 164.683 106.585C164.913 106.406 165.088 106.158 165.207 105.839C165.327 105.521 165.386 105.151 165.386 104.727C165.386 104.304 165.327 103.936 165.207 103.624C165.091 103.311 164.917 103.068 164.687 102.895C164.46 102.722 164.18 102.635 163.848 102.635C163.504 102.635 163.217 102.724 162.987 102.903C162.757 103.082 162.584 103.33 162.467 103.645C162.351 103.96 162.292 104.321 162.292 104.727C162.292 105.136 162.351 105.501 162.467 105.822C162.586 106.141 162.761 106.392 162.991 106.577C163.224 106.759 163.51 106.849 163.848 106.849ZM168.907 108V101.455H170.45V108H168.907ZM169.683 100.526C169.438 100.526 169.228 100.445 169.052 100.283C168.876 100.118 168.788 99.9205 168.788 99.6903C168.788 99.4574 168.876 99.2599 169.052 99.098C169.228 98.9332 169.438 98.8509 169.683 98.8509C169.93 98.8509 170.14 98.9332 170.313 99.098C170.489 99.2599 170.578 99.4574 170.578 99.6903C170.578 99.9205 170.489 100.118 170.313 100.283C170.14 100.445 169.93 100.526 169.683 100.526ZM173.802 105.946L173.798 104.084H174.045L176.397 101.455H178.2L175.306 104.676H174.987L173.802 105.946ZM172.396 108V99.2727H173.939V108H172.396ZM176.504 108L174.373 105.021L175.413 103.935L178.349 108H176.504ZM179.588 108V101.455H181.131V108H179.588ZM180.364 100.526C180.119 100.526 179.909 100.445 179.733 100.283C179.557 100.118 179.469 99.9205 179.469 99.6903C179.469 99.4574 179.557 99.2599 179.733 99.098C179.909 98.9332 180.119 98.8509 180.364 98.8509C180.611 98.8509 180.821 98.9332 180.994 99.098C181.17 99.2599 181.258 99.4574 181.258 99.6903C181.258 99.9205 181.17 100.118 180.994 100.283C180.821 100.445 180.611 100.526 180.364 100.526ZM183.077 108V101.455H184.573V102.545H184.641C184.76 102.168 184.965 101.876 185.254 101.672C185.547 101.464 185.881 101.361 186.256 101.361C186.341 101.361 186.436 101.365 186.541 101.374C186.649 101.379 186.739 101.389 186.81 101.403V102.822C186.745 102.8 186.641 102.78 186.499 102.763C186.36 102.743 186.225 102.733 186.094 102.733C185.813 102.733 185.56 102.794 185.335 102.916C185.114 103.036 184.939 103.202 184.811 103.415C184.683 103.628 184.62 103.874 184.62 104.152V108H183.077ZM188.195 108V101.455H189.737V108H188.195ZM188.97 100.526C188.726 100.526 188.516 100.445 188.34 100.283C188.163 100.118 188.075 99.9205 188.075 99.6903C188.075 99.4574 188.163 99.2599 188.34 99.098C188.516 98.9332 188.726 98.8509 188.97 98.8509C189.217 98.8509 189.428 98.9332 189.601 99.098C189.777 99.2599 189.865 99.4574 189.865 99.6903C189.865 99.9205 189.777 100.118 189.601 100.283C189.428 100.445 189.217 100.526 188.97 100.526ZM191.684 108V101.455H193.158V102.567H193.235C193.371 102.192 193.597 101.899 193.912 101.689C194.228 101.476 194.604 101.369 195.042 101.369C195.485 101.369 195.858 101.477 196.162 101.693C196.469 101.906 196.685 102.197 196.81 102.567H196.878C197.023 102.203 197.267 101.913 197.611 101.697C197.958 101.479 198.368 101.369 198.843 101.369C199.445 101.369 199.936 101.56 200.317 101.94C200.698 102.321 200.888 102.876 200.888 103.607V108H199.341V103.845C199.341 103.439 199.233 103.142 199.017 102.955C198.802 102.764 198.537 102.669 198.225 102.669C197.853 102.669 197.561 102.786 197.351 103.018C197.144 103.249 197.04 103.548 197.04 103.918V108H195.527V103.781C195.527 103.443 195.425 103.173 195.221 102.972C195.019 102.77 194.755 102.669 194.428 102.669C194.206 102.669 194.005 102.726 193.823 102.839C193.641 102.95 193.496 103.108 193.388 103.312C193.28 103.514 193.226 103.75 193.226 104.02V108H191.684ZM206.15 108V101.455H207.624V102.567H207.701C207.837 102.192 208.063 101.899 208.378 101.689C208.694 101.476 209.07 101.369 209.508 101.369C209.951 101.369 210.324 101.477 210.628 101.693C210.935 101.906 211.151 102.197 211.276 102.567H211.344C211.489 102.203 211.734 101.913 212.077 101.697C212.424 101.479 212.834 101.369 213.309 101.369C213.911 101.369 214.403 101.56 214.783 101.94C215.164 102.321 215.354 102.876 215.354 103.607V108H213.807V103.845C213.807 103.439 213.699 103.142 213.484 102.955C213.268 102.764 213.003 102.669 212.691 102.669C212.319 102.669 212.028 102.786 211.817 103.018C211.61 103.249 211.506 103.548 211.506 103.918V108H209.993V103.781C209.993 103.443 209.891 103.173 209.687 102.972C209.485 102.77 209.221 102.669 208.894 102.669C208.672 102.669 208.471 102.726 208.289 102.839C208.107 102.95 207.962 103.108 207.854 103.312C207.746 103.514 207.692 103.75 207.692 104.02V108H206.15ZM220.177 108.128C219.521 108.128 218.954 107.991 218.477 107.719C218.002 107.443 217.637 107.054 217.382 106.551C217.126 106.045 216.998 105.45 216.998 104.766C216.998 104.092 217.126 103.501 217.382 102.993C217.64 102.482 218.001 102.084 218.464 101.8C218.927 101.513 219.471 101.369 220.096 101.369C220.499 101.369 220.88 101.435 221.238 101.565C221.599 101.693 221.917 101.892 222.193 102.162C222.471 102.432 222.69 102.776 222.849 103.193C223.008 103.608 223.088 104.102 223.088 104.676V105.149H217.722V104.109H221.609C221.606 103.814 221.542 103.551 221.417 103.321C221.292 103.088 221.117 102.905 220.893 102.771C220.671 102.638 220.413 102.571 220.117 102.571C219.802 102.571 219.525 102.648 219.286 102.801C219.048 102.952 218.862 103.151 218.728 103.398C218.597 103.642 218.531 103.911 218.528 104.203V105.111C218.528 105.491 218.597 105.818 218.737 106.091C218.876 106.361 219.07 106.568 219.32 106.713C219.57 106.855 219.863 106.926 220.198 106.926C220.423 106.926 220.626 106.895 220.808 106.832C220.989 106.767 221.147 106.672 221.281 106.547C221.414 106.422 221.515 106.267 221.583 106.082L223.024 106.244C222.933 106.625 222.759 106.957 222.504 107.241C222.251 107.523 221.927 107.741 221.532 107.898C221.137 108.051 220.686 108.128 220.177 108.128ZM226.295 99.2727V108H224.753V99.2727H226.295ZM230.125 108.132C229.71 108.132 229.337 108.058 229.004 107.911C228.675 107.76 228.413 107.538 228.22 107.246C228.03 106.953 227.935 106.592 227.935 106.163C227.935 105.794 228.003 105.489 228.139 105.247C228.276 105.006 228.462 104.812 228.697 104.668C228.933 104.523 229.199 104.413 229.494 104.339C229.793 104.263 230.101 104.207 230.419 104.173C230.803 104.134 231.114 104.098 231.352 104.067C231.591 104.033 231.764 103.982 231.872 103.913C231.983 103.842 232.038 103.733 232.038 103.585V103.56C232.038 103.239 231.943 102.99 231.753 102.814C231.562 102.638 231.288 102.55 230.93 102.55C230.553 102.55 230.253 102.632 230.031 102.797C229.812 102.962 229.665 103.156 229.588 103.381L228.148 103.176C228.261 102.778 228.449 102.446 228.71 102.179C228.972 101.909 229.291 101.707 229.669 101.574C230.047 101.438 230.464 101.369 230.922 101.369C231.237 101.369 231.551 101.406 231.864 101.48C232.176 101.554 232.462 101.676 232.72 101.847C232.979 102.014 233.186 102.243 233.342 102.533C233.501 102.822 233.581 103.185 233.581 103.619V108H232.098V107.101H232.047C231.953 107.283 231.821 107.453 231.651 107.612C231.483 107.768 231.271 107.895 231.016 107.991C230.763 108.085 230.466 108.132 230.125 108.132ZM230.526 106.999C230.835 106.999 231.104 106.937 231.331 106.815C231.558 106.69 231.733 106.526 231.855 106.321C231.98 106.116 232.043 105.893 232.043 105.652V104.881C231.994 104.92 231.912 104.957 231.795 104.991C231.682 105.026 231.554 105.055 231.412 105.081C231.27 105.107 231.129 105.129 230.99 105.149C230.851 105.169 230.73 105.186 230.628 105.2C230.398 105.232 230.192 105.283 230.01 105.354C229.828 105.425 229.685 105.524 229.58 105.652C229.474 105.777 229.422 105.939 229.422 106.138C229.422 106.422 229.526 106.636 229.733 106.781C229.94 106.926 230.205 106.999 230.526 106.999ZM237.035 99.2727V108H235.492V99.2727H237.035ZM243.153 105.247V101.455H244.695V108H243.2V106.837H243.132C242.984 107.203 242.741 107.503 242.403 107.736C242.068 107.969 241.654 108.085 241.163 108.085C240.734 108.085 240.355 107.99 240.025 107.8C239.698 107.607 239.443 107.327 239.258 106.96C239.073 106.591 238.981 106.145 238.981 105.622V101.455H240.524V105.384C240.524 105.798 240.637 106.128 240.865 106.372C241.092 106.616 241.39 106.739 241.759 106.739C241.987 106.739 242.207 106.683 242.42 106.572C242.633 106.462 242.808 106.297 242.944 106.078C243.083 105.857 243.153 105.58 243.153 105.247ZM246.642 108V101.455H248.184V108H246.642ZM247.417 100.526C247.173 100.526 246.963 100.445 246.787 100.283C246.611 100.118 246.522 99.9205 246.522 99.6903C246.522 99.4574 246.611 99.2599 246.787 99.098C246.963 98.9332 247.173 98.8509 247.417 98.8509C247.664 98.8509 247.875 98.9332 248.048 99.098C248.224 99.2599 248.312 99.4574 248.312 99.6903C248.312 99.9205 248.224 100.118 248.048 100.283C247.875 100.445 247.664 100.526 247.417 100.526ZM256.365 108.128C255.709 108.128 255.142 107.991 254.665 107.719C254.19 107.443 253.825 107.054 253.57 106.551C253.314 106.045 253.186 105.45 253.186 104.766C253.186 104.092 253.314 103.501 253.57 102.993C253.828 102.482 254.189 102.084 254.652 101.8C255.115 101.513 255.659 101.369 256.284 101.369C256.687 101.369 257.068 101.435 257.426 101.565C257.787 101.693 258.105 101.892 258.381 102.162C258.659 102.432 258.878 102.776 259.037 103.193C259.196 103.608 259.275 104.102 259.275 104.676V105.149H253.91V104.109H257.797C257.794 103.814 257.73 103.551 257.605 103.321C257.48 103.088 257.305 102.905 257.081 102.771C256.859 102.638 256.601 102.571 256.305 102.571C255.99 102.571 255.713 102.648 255.474 102.801C255.236 102.952 255.05 103.151 254.916 103.398C254.785 103.642 254.719 103.911 254.716 104.203V105.111C254.716 105.491 254.785 105.818 254.925 106.091C255.064 106.361 255.258 106.568 255.508 106.713C255.758 106.855 256.051 106.926 256.386 106.926C256.611 106.926 256.814 106.895 256.996 106.832C257.177 106.767 257.335 106.672 257.469 106.547C257.602 106.422 257.703 106.267 257.771 106.082L259.212 106.244C259.121 106.625 258.947 106.957 258.692 107.241C258.439 107.523 258.115 107.741 257.72 107.898C257.325 108.051 256.873 108.128 256.365 108.128ZM260.941 108V101.455H262.415V102.567H262.492C262.628 102.192 262.854 101.899 263.169 101.689C263.485 101.476 263.861 101.369 264.298 101.369C264.742 101.369 265.115 101.477 265.419 101.693C265.726 101.906 265.942 102.197 266.067 102.567H266.135C266.28 102.203 266.524 101.913 266.868 101.697C267.215 101.479 267.625 101.369 268.1 101.369C268.702 101.369 269.193 101.56 269.574 101.94C269.955 102.321 270.145 102.876 270.145 103.607V108H268.598V103.845C268.598 103.439 268.49 103.142 268.274 102.955C268.058 102.764 267.794 102.669 267.482 102.669C267.11 102.669 266.818 102.786 266.608 103.018C266.401 103.249 266.297 103.548 266.297 103.918V108H264.784V103.781C264.784 103.443 264.682 103.173 264.477 102.972C264.276 102.77 264.012 102.669 263.685 102.669C263.463 102.669 263.262 102.726 263.08 102.839C262.898 102.95 262.753 103.108 262.645 103.312C262.537 103.514 262.483 103.75 262.483 104.02V108H260.941ZM273.954 108.132C273.539 108.132 273.165 108.058 272.833 107.911C272.503 107.76 272.242 107.538 272.049 107.246C271.858 106.953 271.763 106.592 271.763 106.163C271.763 105.794 271.831 105.489 271.968 105.247C272.104 105.006 272.29 104.812 272.526 104.668C272.762 104.523 273.027 104.413 273.323 104.339C273.621 104.263 273.929 104.207 274.248 104.173C274.631 104.134 274.942 104.098 275.181 104.067C275.419 104.033 275.593 103.982 275.701 103.913C275.812 103.842 275.867 103.733 275.867 103.585V103.56C275.867 103.239 275.772 102.99 275.581 102.814C275.391 102.638 275.117 102.55 274.759 102.55C274.381 102.55 274.081 102.632 273.86 102.797C273.641 102.962 273.493 103.156 273.417 103.381L271.976 103.176C272.09 102.778 272.277 102.446 272.539 102.179C272.8 101.909 273.12 101.707 273.498 101.574C273.875 101.438 274.293 101.369 274.75 101.369C275.066 101.369 275.38 101.406 275.692 101.48C276.005 101.554 276.29 101.676 276.549 101.847C276.807 102.014 277.015 102.243 277.171 102.533C277.33 102.822 277.41 103.185 277.41 103.619V108H275.927V107.101H275.875C275.782 107.283 275.65 107.453 275.479 107.612C275.312 107.768 275.1 107.895 274.844 107.991C274.591 108.085 274.294 108.132 273.954 108.132ZM274.354 106.999C274.664 106.999 274.932 106.937 275.16 106.815C275.387 106.69 275.562 106.526 275.684 106.321C275.809 106.116 275.871 105.893 275.871 105.652V104.881C275.823 104.92 275.741 104.957 275.624 104.991C275.51 105.026 275.383 105.055 275.241 105.081C275.098 105.107 274.958 105.129 274.819 105.149C274.679 105.169 274.559 105.186 274.456 105.2C274.226 105.232 274.02 105.283 273.839 105.354C273.657 105.425 273.513 105.524 273.408 105.652C273.303 105.777 273.25 105.939 273.25 106.138C273.25 106.422 273.354 106.636 273.562 106.781C273.769 106.926 274.033 106.999 274.354 106.999ZM279.321 108V101.455H280.863V108H279.321ZM280.096 100.526C279.852 100.526 279.642 100.445 279.466 100.283C279.289 100.118 279.201 99.9205 279.201 99.6903C279.201 99.4574 279.289 99.2599 279.466 99.098C279.642 98.9332 279.852 98.8509 280.096 98.8509C280.343 98.8509 280.554 98.9332 280.727 99.098C280.903 99.2599 280.991 99.4574 280.991 99.6903C280.991 99.9205 280.903 100.118 280.727 100.283C280.554 100.445 280.343 100.526 280.096 100.526ZM284.352 99.2727V108H282.81V99.2727H284.352ZM290.594 110.455C290.384 110.455 290.189 110.438 290.01 110.403C289.834 110.372 289.693 110.335 289.588 110.293L289.946 109.091C290.171 109.156 290.371 109.188 290.547 109.185C290.723 109.182 290.878 109.126 291.011 109.018C291.148 108.913 291.263 108.737 291.357 108.49L291.489 108.136L289.115 101.455H290.751L292.26 106.398H292.328L293.841 101.455H295.482L292.861 108.793C292.739 109.139 292.577 109.436 292.375 109.683C292.173 109.933 291.926 110.124 291.634 110.254C291.344 110.388 290.997 110.455 290.594 110.455ZM298.605 108.132C298.19 108.132 297.817 108.058 297.484 107.911C297.155 107.76 296.894 107.538 296.7 107.246C296.51 106.953 296.415 106.592 296.415 106.163C296.415 105.794 296.483 105.489 296.619 105.247C296.756 105.006 296.942 104.812 297.178 104.668C297.413 104.523 297.679 104.413 297.974 104.339C298.273 104.263 298.581 104.207 298.899 104.173C299.283 104.134 299.594 104.098 299.832 104.067C300.071 104.033 300.244 103.982 300.352 103.913C300.463 103.842 300.519 103.733 300.519 103.585V103.56C300.519 103.239 300.423 102.99 300.233 102.814C300.043 102.638 299.769 102.55 299.411 102.55C299.033 102.55 298.733 102.632 298.511 102.797C298.293 102.962 298.145 103.156 298.068 103.381L296.628 103.176C296.742 102.778 296.929 102.446 297.19 102.179C297.452 101.909 297.771 101.707 298.149 101.574C298.527 101.438 298.945 101.369 299.402 101.369C299.717 101.369 300.031 101.406 300.344 101.48C300.656 101.554 300.942 101.676 301.2 101.847C301.459 102.014 301.666 102.243 301.822 102.533C301.982 102.822 302.061 103.185 302.061 103.619V108H300.578V107.101H300.527C300.433 107.283 300.301 107.453 300.131 107.612C299.963 107.768 299.751 107.895 299.496 107.991C299.243 108.085 298.946 108.132 298.605 108.132ZM299.006 106.999C299.315 106.999 299.584 106.937 299.811 106.815C300.038 106.69 300.213 106.526 300.335 106.321C300.46 106.116 300.523 105.893 300.523 105.652V104.881C300.474 104.92 300.392 104.957 300.276 104.991C300.162 105.026 300.034 105.055 299.892 105.081C299.75 105.107 299.609 105.129 299.47 105.149C299.331 105.169 299.21 105.186 299.108 105.2C298.878 105.232 298.672 105.283 298.49 105.354C298.308 105.425 298.165 105.524 298.06 105.652C297.955 105.777 297.902 105.939 297.902 106.138C297.902 106.422 298.006 106.636 298.213 106.781C298.42 106.926 298.685 106.999 299.006 106.999ZM305.515 104.165V108H303.972V101.455H305.447V102.567H305.523C305.674 102.2 305.914 101.909 306.244 101.693C306.576 101.477 306.986 101.369 307.475 101.369C307.927 101.369 308.32 101.466 308.655 101.659C308.994 101.852 309.255 102.132 309.44 102.499C309.627 102.865 309.719 103.31 309.717 103.832V108H308.174V104.071C308.174 103.634 308.06 103.291 307.833 103.044C307.609 102.797 307.298 102.673 306.9 102.673C306.63 102.673 306.39 102.733 306.18 102.852C305.972 102.969 305.809 103.138 305.69 103.359C305.573 103.581 305.515 103.849 305.515 104.165ZM314.491 110.591C313.937 110.591 313.461 110.516 313.064 110.365C312.666 110.217 312.346 110.018 312.105 109.768C311.863 109.518 311.696 109.241 311.602 108.938L312.991 108.601C313.054 108.729 313.145 108.855 313.264 108.98C313.383 109.108 313.544 109.213 313.746 109.295C313.95 109.381 314.207 109.423 314.517 109.423C314.954 109.423 315.317 109.317 315.604 109.104C315.89 108.893 316.034 108.547 316.034 108.064V106.824H315.957C315.878 106.983 315.761 107.146 315.608 107.314C315.457 107.482 315.257 107.622 315.007 107.736C314.76 107.849 314.449 107.906 314.074 107.906C313.571 107.906 313.115 107.788 312.706 107.553C312.3 107.314 311.976 106.959 311.734 106.487C311.496 106.013 311.376 105.419 311.376 104.706C311.376 103.987 311.496 103.381 311.734 102.886C311.976 102.389 312.301 102.013 312.71 101.757C313.119 101.499 313.575 101.369 314.078 101.369C314.461 101.369 314.777 101.435 315.024 101.565C315.274 101.693 315.473 101.848 315.621 102.03C315.768 102.209 315.881 102.378 315.957 102.537H316.042V101.455H317.564V108.107C317.564 108.666 317.43 109.129 317.163 109.496C316.896 109.862 316.531 110.136 316.068 110.318C315.605 110.5 315.079 110.591 314.491 110.591ZM314.504 106.696C314.831 106.696 315.109 106.616 315.339 106.457C315.569 106.298 315.744 106.07 315.863 105.771C315.983 105.473 316.042 105.115 316.042 104.697C316.042 104.286 315.983 103.925 315.863 103.615C315.747 103.305 315.574 103.065 315.344 102.895C315.116 102.722 314.836 102.635 314.504 102.635C314.16 102.635 313.873 102.724 313.643 102.903C313.413 103.082 313.24 103.328 313.123 103.641C313.007 103.95 312.949 104.303 312.949 104.697C312.949 105.098 313.007 105.449 313.123 105.75C313.243 106.048 313.417 106.281 313.648 106.449C313.881 106.614 314.166 106.696 314.504 106.696ZM326.11 101.455V102.648H322.347V101.455H326.11ZM323.276 99.8864H324.819V106.031C324.819 106.239 324.85 106.398 324.912 106.509C324.978 106.616 325.063 106.69 325.168 106.73C325.273 106.77 325.39 106.79 325.517 106.79C325.614 106.79 325.702 106.783 325.782 106.768C325.864 106.754 325.927 106.741 325.969 106.73L326.229 107.936C326.147 107.964 326.029 107.996 325.875 108.03C325.725 108.064 325.54 108.084 325.321 108.089C324.935 108.101 324.587 108.043 324.277 107.915C323.968 107.784 323.722 107.582 323.54 107.31C323.361 107.037 323.273 106.696 323.276 106.287V99.8864ZM330.587 108.128C329.931 108.128 329.364 107.991 328.887 107.719C328.413 107.443 328.048 107.054 327.792 106.551C327.536 106.045 327.408 105.45 327.408 104.766C327.408 104.092 327.536 103.501 327.792 102.993C328.05 102.482 328.411 102.084 328.874 101.8C329.337 101.513 329.881 101.369 330.506 101.369C330.91 101.369 331.29 101.435 331.648 101.565C332.009 101.693 332.327 101.892 332.603 102.162C332.881 102.432 333.1 102.776 333.259 103.193C333.418 103.608 333.498 104.102 333.498 104.676V105.149H328.133V104.109H332.019C332.016 103.814 331.952 103.551 331.827 103.321C331.702 103.088 331.528 102.905 331.303 102.771C331.082 102.638 330.823 102.571 330.528 102.571C330.212 102.571 329.935 102.648 329.697 102.801C329.458 102.952 329.272 103.151 329.138 103.398C329.008 103.642 328.941 103.911 328.938 104.203V105.111C328.938 105.491 329.008 105.818 329.147 106.091C329.286 106.361 329.481 106.568 329.731 106.713C329.981 106.855 330.273 106.926 330.609 106.926C330.833 106.926 331.036 106.895 331.218 106.832C331.4 106.767 331.557 106.672 331.691 106.547C331.825 106.422 331.925 106.267 331.994 106.082L333.434 106.244C333.343 106.625 333.17 106.957 332.914 107.241C332.661 107.523 332.337 107.741 331.942 107.898C331.548 108.051 331.096 108.128 330.587 108.128ZM335.163 108V101.455H336.659V102.545H336.727C336.846 102.168 337.051 101.876 337.34 101.672C337.633 101.464 337.967 101.361 338.342 101.361C338.427 101.361 338.522 101.365 338.627 101.374C338.735 101.379 338.825 101.389 338.896 101.403V102.822C338.83 102.8 338.727 102.78 338.585 102.763C338.446 102.743 338.311 102.733 338.18 102.733C337.899 102.733 337.646 102.794 337.421 102.916C337.2 103.036 337.025 103.202 336.897 103.415C336.769 103.628 336.705 103.874 336.705 104.152V108H335.163ZM342.44 108.115C341.926 108.115 341.466 107.983 341.059 107.719C340.653 107.455 340.332 107.071 340.096 106.568C339.861 106.065 339.743 105.455 339.743 104.736C339.743 104.009 339.862 103.395 340.101 102.895C340.342 102.392 340.667 102.013 341.076 101.757C341.486 101.499 341.942 101.369 342.444 101.369C342.828 101.369 343.143 101.435 343.39 101.565C343.638 101.693 343.834 101.848 343.978 102.03C344.123 102.209 344.236 102.378 344.315 102.537H344.379V99.2727H345.926V108H344.409V106.969H344.315C344.236 107.128 344.12 107.297 343.97 107.476C343.819 107.652 343.62 107.803 343.373 107.928C343.126 108.053 342.815 108.115 342.44 108.115ZM342.87 106.849C343.197 106.849 343.476 106.761 343.706 106.585C343.936 106.406 344.111 106.158 344.23 105.839C344.349 105.521 344.409 105.151 344.409 104.727C344.409 104.304 344.349 103.936 344.23 103.624C344.113 103.311 343.94 103.068 343.71 102.895C343.483 102.722 343.203 102.635 342.87 102.635C342.527 102.635 342.24 102.724 342.01 102.903C341.78 103.082 341.606 103.33 341.49 103.645C341.373 103.96 341.315 104.321 341.315 104.727C341.315 105.136 341.373 105.501 341.49 105.822C341.609 106.141 341.784 106.392 342.014 106.577C342.247 106.759 342.532 106.849 342.87 106.849ZM349.813 108.132C349.399 108.132 349.025 108.058 348.693 107.911C348.363 107.76 348.102 107.538 347.908 107.246C347.718 106.953 347.623 106.592 347.623 106.163C347.623 105.794 347.691 105.489 347.827 105.247C347.964 105.006 348.15 104.812 348.386 104.668C348.622 104.523 348.887 104.413 349.183 104.339C349.481 104.263 349.789 104.207 350.107 104.173C350.491 104.134 350.802 104.098 351.041 104.067C351.279 104.033 351.452 103.982 351.56 103.913C351.671 103.842 351.727 103.733 351.727 103.585V103.56C351.727 103.239 351.631 102.99 351.441 102.814C351.251 102.638 350.977 102.55 350.619 102.55C350.241 102.55 349.941 102.632 349.72 102.797C349.501 102.962 349.353 103.156 349.276 103.381L347.836 103.176C347.95 102.778 348.137 102.446 348.399 102.179C348.66 101.909 348.979 101.707 349.357 101.574C349.735 101.438 350.153 101.369 350.61 101.369C350.925 101.369 351.239 101.406 351.552 101.48C351.864 101.554 352.15 101.676 352.408 101.847C352.667 102.014 352.874 102.243 353.031 102.533C353.19 102.822 353.269 103.185 353.269 103.619V108H351.786V107.101H351.735C351.641 107.283 351.509 107.453 351.339 107.612C351.171 107.768 350.96 107.895 350.704 107.991C350.451 108.085 350.154 108.132 349.813 108.132ZM350.214 106.999C350.524 106.999 350.792 106.937 351.019 106.815C351.247 106.69 351.421 106.526 351.543 106.321C351.668 106.116 351.731 105.893 351.731 105.652V104.881C351.683 104.92 351.6 104.957 351.484 104.991C351.37 105.026 351.242 105.055 351.1 105.081C350.958 105.107 350.818 105.129 350.678 105.149C350.539 105.169 350.418 105.186 350.316 105.2C350.086 105.232 349.88 105.283 349.698 105.354C349.516 105.425 349.373 105.524 349.268 105.652C349.163 105.777 349.11 105.939 349.11 106.138C349.11 106.422 349.214 106.636 349.421 106.781C349.629 106.926 349.893 106.999 350.214 106.999ZM358.496 101.455V102.648H354.626V101.455H358.496ZM355.594 108V100.837C355.594 100.396 355.685 100.03 355.866 99.7372C356.051 99.4446 356.298 99.2259 356.608 99.081C356.918 98.9361 357.261 98.8636 357.639 98.8636C357.906 98.8636 358.143 98.8849 358.351 98.9276C358.558 98.9702 358.712 99.0085 358.811 99.0426L358.504 100.236C358.439 100.216 358.357 100.196 358.257 100.176C358.158 100.153 358.047 100.142 357.925 100.142C357.638 100.142 357.435 100.212 357.315 100.351C357.199 100.487 357.141 100.683 357.141 100.939V108H355.594ZM363.332 101.455V102.648H359.569V101.455H363.332ZM360.498 99.8864H362.041V106.031C362.041 106.239 362.072 106.398 362.135 106.509C362.2 106.616 362.285 106.69 362.39 106.73C362.496 106.77 362.612 106.79 362.74 106.79C362.837 106.79 362.925 106.783 363.004 106.768C363.087 106.754 363.149 106.741 363.192 106.73L363.452 107.936C363.369 107.964 363.251 107.996 363.098 108.03C362.947 108.064 362.763 108.084 362.544 108.089C362.158 108.101 361.81 108.043 361.5 107.915C361.19 107.784 360.944 107.582 360.763 107.31C360.584 107.037 360.496 106.696 360.498 106.287V99.8864ZM366.866 108.132C366.451 108.132 366.078 108.058 365.745 107.911C365.416 107.76 365.154 107.538 364.961 107.246C364.771 106.953 364.676 106.592 364.676 106.163C364.676 105.794 364.744 105.489 364.88 105.247C365.016 105.006 365.203 104.812 365.438 104.668C365.674 104.523 365.94 104.413 366.235 104.339C366.534 104.263 366.842 104.207 367.16 104.173C367.543 104.134 367.855 104.098 368.093 104.067C368.332 104.033 368.505 103.982 368.613 103.913C368.724 103.842 368.779 103.733 368.779 103.585V103.56C368.779 103.239 368.684 102.99 368.494 102.814C368.303 102.638 368.029 102.55 367.671 102.55C367.293 102.55 366.994 102.632 366.772 102.797C366.553 102.962 366.406 103.156 366.329 103.381L364.889 103.176C365.002 102.778 365.19 102.446 365.451 102.179C365.712 101.909 366.032 101.707 366.41 101.574C366.788 101.438 367.205 101.369 367.663 101.369C367.978 101.369 368.292 101.406 368.605 101.48C368.917 101.554 369.203 101.676 369.461 101.847C369.72 102.014 369.927 102.243 370.083 102.533C370.242 102.822 370.322 103.185 370.322 103.619V108H368.839V107.101H368.788C368.694 107.283 368.562 107.453 368.391 107.612C368.224 107.768 368.012 107.895 367.757 107.991C367.504 108.085 367.207 108.132 366.866 108.132ZM367.266 106.999C367.576 106.999 367.845 106.937 368.072 106.815C368.299 106.69 368.474 106.526 368.596 106.321C368.721 106.116 368.784 105.893 368.784 105.652V104.881C368.735 104.92 368.653 104.957 368.536 104.991C368.423 105.026 368.295 105.055 368.153 105.081C368.011 105.107 367.87 105.129 367.731 105.149C367.592 105.169 367.471 105.186 367.369 105.2C367.139 105.232 366.933 105.283 366.751 105.354C366.569 105.425 366.426 105.524 366.32 105.652C366.215 105.777 366.163 105.939 366.163 106.138C366.163 106.422 366.266 106.636 366.474 106.781C366.681 106.926 366.945 106.999 367.266 106.999ZM372.233 108V101.455H373.729V102.545H373.797C373.916 102.168 374.121 101.876 374.411 101.672C374.703 101.464 375.037 101.361 375.412 101.361C375.497 101.361 375.592 101.365 375.697 101.374C375.805 101.379 375.895 101.389 375.966 101.403V102.822C375.901 102.8 375.797 102.78 375.655 102.763C375.516 102.743 375.381 102.733 375.25 102.733C374.969 102.733 374.716 102.794 374.492 102.916C374.27 103.036 374.095 103.202 373.967 103.415C373.84 103.628 373.776 103.874 373.776 104.152V108H372.233ZM378.412 106.807L378.357 107.276C378.317 107.634 378.246 107.997 378.143 108.366C378.044 108.739 377.939 109.081 377.828 109.393C377.717 109.706 377.628 109.952 377.56 110.131H376.52C376.56 109.957 376.614 109.722 376.682 109.423C376.753 109.125 376.821 108.79 376.886 108.418C376.952 108.045 376.996 107.668 377.018 107.284L377.048 106.807H378.412ZM131.785 119.165V123H130.242V114.273H131.751V117.567H131.828C131.981 117.197 132.218 116.906 132.539 116.693C132.863 116.477 133.275 116.369 133.775 116.369C134.23 116.369 134.626 116.464 134.964 116.655C135.302 116.845 135.563 117.124 135.748 117.49C135.936 117.857 136.029 118.304 136.029 118.832V123H134.487V119.071C134.487 118.631 134.373 118.288 134.146 118.044C133.921 117.797 133.606 117.673 133.2 117.673C132.927 117.673 132.683 117.733 132.467 117.852C132.254 117.969 132.086 118.138 131.964 118.359C131.845 118.581 131.785 118.849 131.785 119.165ZM139.845 123.132C139.431 123.132 139.057 123.058 138.725 122.911C138.395 122.76 138.134 122.538 137.941 122.246C137.75 121.953 137.655 121.592 137.655 121.163C137.655 120.794 137.723 120.489 137.86 120.247C137.996 120.006 138.182 119.812 138.418 119.668C138.654 119.523 138.919 119.413 139.215 119.339C139.513 119.263 139.821 119.207 140.139 119.173C140.523 119.134 140.834 119.098 141.073 119.067C141.311 119.033 141.485 118.982 141.593 118.913C141.703 118.842 141.759 118.733 141.759 118.585V118.56C141.759 118.239 141.664 117.99 141.473 117.814C141.283 117.638 141.009 117.55 140.651 117.55C140.273 117.55 139.973 117.632 139.752 117.797C139.533 117.962 139.385 118.156 139.308 118.381L137.868 118.176C137.982 117.778 138.169 117.446 138.431 117.179C138.692 116.909 139.012 116.707 139.389 116.574C139.767 116.438 140.185 116.369 140.642 116.369C140.958 116.369 141.271 116.406 141.584 116.48C141.896 116.554 142.182 116.676 142.441 116.847C142.699 117.014 142.906 117.243 143.063 117.533C143.222 117.822 143.301 118.185 143.301 118.619V123H141.818V122.101H141.767C141.673 122.283 141.541 122.453 141.371 122.612C141.203 122.768 140.992 122.895 140.736 122.991C140.483 123.085 140.186 123.132 139.845 123.132ZM140.246 121.999C140.556 121.999 140.824 121.937 141.051 121.815C141.279 121.69 141.453 121.526 141.575 121.321C141.7 121.116 141.763 120.893 141.763 120.652V119.881C141.715 119.92 141.632 119.957 141.516 119.991C141.402 120.026 141.274 120.055 141.132 120.081C140.99 120.107 140.85 120.129 140.71 120.149C140.571 120.169 140.45 120.186 140.348 120.2C140.118 120.232 139.912 120.283 139.73 120.354C139.548 120.425 139.405 120.524 139.3 120.652C139.195 120.777 139.142 120.939 139.142 121.138C139.142 121.422 139.246 121.636 139.453 121.781C139.661 121.926 139.925 121.999 140.246 121.999ZM145.212 123V116.455H146.708V117.545H146.776C146.896 117.168 147.1 116.876 147.39 116.672C147.683 116.464 148.016 116.361 148.391 116.361C148.477 116.361 148.572 116.365 148.677 116.374C148.785 116.379 148.874 116.389 148.945 116.403V117.822C148.88 117.8 148.776 117.78 148.634 117.763C148.495 117.743 148.36 117.733 148.23 117.733C147.948 117.733 147.695 117.794 147.471 117.916C147.249 118.036 147.075 118.202 146.947 118.415C146.819 118.628 146.755 118.874 146.755 119.152V123H145.212ZM152.097 123.132C151.682 123.132 151.308 123.058 150.976 122.911C150.646 122.76 150.385 122.538 150.192 122.246C150.001 121.953 149.906 121.592 149.906 121.163C149.906 120.794 149.974 120.489 150.111 120.247C150.247 120.006 150.433 119.812 150.669 119.668C150.905 119.523 151.17 119.413 151.466 119.339C151.764 119.263 152.072 119.207 152.391 119.173C152.774 119.134 153.085 119.098 153.324 119.067C153.563 119.033 153.736 118.982 153.844 118.913C153.955 118.842 154.01 118.733 154.01 118.585V118.56C154.01 118.239 153.915 117.99 153.724 117.814C153.534 117.638 153.26 117.55 152.902 117.55C152.524 117.55 152.224 117.632 152.003 117.797C151.784 117.962 151.636 118.156 151.56 118.381L150.119 118.176C150.233 117.778 150.42 117.446 150.682 117.179C150.943 116.909 151.263 116.707 151.641 116.574C152.018 116.438 152.436 116.369 152.893 116.369C153.209 116.369 153.523 116.406 153.835 116.48C154.148 116.554 154.433 116.676 154.692 116.847C154.95 117.014 155.158 117.243 155.314 117.533C155.473 117.822 155.553 118.185 155.553 118.619V123H154.07V122.101H154.018C153.925 122.283 153.793 122.453 153.622 122.612C153.455 122.768 153.243 122.895 152.987 122.991C152.734 123.085 152.438 123.132 152.097 123.132ZM152.497 121.999C152.807 121.999 153.075 121.937 153.303 121.815C153.53 121.69 153.705 121.526 153.827 121.321C153.952 121.116 154.014 120.893 154.014 120.652V119.881C153.966 119.92 153.884 119.957 153.767 119.991C153.653 120.026 153.526 120.055 153.384 120.081C153.241 120.107 153.101 120.129 152.962 120.149C152.822 120.169 152.702 120.186 152.599 120.2C152.369 120.232 152.163 120.283 151.982 120.354C151.8 120.425 151.656 120.524 151.551 120.652C151.446 120.777 151.393 120.939 151.393 121.138C151.393 121.422 151.497 121.636 151.705 121.781C151.912 121.926 152.176 121.999 152.497 121.999ZM157.464 125.455V116.455H158.981V117.537H159.07C159.15 117.378 159.262 117.209 159.407 117.03C159.552 116.848 159.748 116.693 159.995 116.565C160.242 116.435 160.557 116.369 160.941 116.369C161.447 116.369 161.903 116.499 162.309 116.757C162.718 117.013 163.042 117.392 163.28 117.895C163.522 118.395 163.643 119.009 163.643 119.736C163.643 120.455 163.525 121.065 163.289 121.568C163.053 122.071 162.732 122.455 162.326 122.719C161.92 122.983 161.459 123.115 160.945 123.115C160.57 123.115 160.259 123.053 160.012 122.928C159.765 122.803 159.566 122.652 159.415 122.476C159.268 122.297 159.153 122.128 159.07 121.969H159.006V125.455H157.464ZM158.976 119.727C158.976 120.151 159.036 120.521 159.155 120.839C159.278 121.158 159.452 121.406 159.68 121.585C159.91 121.761 160.188 121.849 160.515 121.849C160.856 121.849 161.141 121.759 161.371 121.577C161.601 121.392 161.775 121.141 161.891 120.822C162.011 120.501 162.07 120.136 162.07 119.727C162.07 119.321 162.012 118.96 161.896 118.645C161.779 118.33 161.606 118.082 161.376 117.903C161.146 117.724 160.859 117.635 160.515 117.635C160.185 117.635 159.905 117.722 159.675 117.895C159.445 118.068 159.271 118.311 159.151 118.624C159.035 118.936 158.976 119.304 158.976 119.727ZM168.66 125.455V116.455H170.177V117.537H170.267C170.346 117.378 170.459 117.209 170.603 117.03C170.748 116.848 170.944 116.693 171.192 116.565C171.439 116.435 171.754 116.369 172.138 116.369C172.643 116.369 173.099 116.499 173.505 116.757C173.915 117.013 174.238 117.392 174.477 117.895C174.719 118.395 174.839 119.009 174.839 119.736C174.839 120.455 174.721 121.065 174.486 121.568C174.25 122.071 173.929 122.455 173.522 122.719C173.116 122.983 172.656 123.115 172.142 123.115C171.767 123.115 171.456 123.053 171.209 122.928C170.961 122.803 170.763 122.652 170.612 122.476C170.464 122.297 170.349 122.128 170.267 121.969H170.203V125.455H168.66ZM170.173 119.727C170.173 120.151 170.233 120.521 170.352 120.839C170.474 121.158 170.649 121.406 170.876 121.585C171.106 121.761 171.385 121.849 171.711 121.849C172.052 121.849 172.338 121.759 172.568 121.577C172.798 121.392 172.971 121.141 173.088 120.822C173.207 120.501 173.267 120.136 173.267 119.727C173.267 119.321 173.209 118.96 173.092 118.645C172.976 118.33 172.802 118.082 172.572 117.903C172.342 117.724 172.055 117.635 171.711 117.635C171.382 117.635 171.102 117.722 170.872 117.895C170.642 118.068 170.467 118.311 170.348 118.624C170.231 118.936 170.173 119.304 170.173 119.727ZM179.418 123.128C178.762 123.128 178.195 122.991 177.718 122.719C177.243 122.443 176.878 122.054 176.623 121.551C176.367 121.045 176.239 120.45 176.239 119.766C176.239 119.092 176.367 118.501 176.623 117.993C176.881 117.482 177.242 117.084 177.705 116.8C178.168 116.513 178.712 116.369 179.337 116.369C179.74 116.369 180.121 116.435 180.479 116.565C180.84 116.693 181.158 116.892 181.434 117.162C181.712 117.432 181.931 117.776 182.09 118.193C182.249 118.608 182.329 119.102 182.329 119.676V120.149H176.963V119.109H180.85C180.847 118.814 180.783 118.551 180.658 118.321C180.533 118.088 180.358 117.905 180.134 117.771C179.912 117.638 179.654 117.571 179.358 117.571C179.043 117.571 178.766 117.648 178.527 117.801C178.289 117.952 178.103 118.151 177.969 118.398C177.838 118.642 177.772 118.911 177.769 119.203V120.111C177.769 120.491 177.838 120.818 177.978 121.091C178.117 121.361 178.311 121.568 178.561 121.713C178.811 121.855 179.104 121.926 179.439 121.926C179.664 121.926 179.867 121.895 180.049 121.832C180.231 121.767 180.388 121.672 180.522 121.547C180.655 121.422 180.756 121.267 180.824 121.082L182.265 121.244C182.174 121.625 182 121.957 181.745 122.241C181.492 122.523 181.168 122.741 180.773 122.898C180.378 123.051 179.927 123.128 179.418 123.128ZM183.994 123V116.455H185.489V117.545H185.557C185.677 117.168 185.881 116.876 186.171 116.672C186.464 116.464 186.798 116.361 187.173 116.361C187.258 116.361 187.353 116.365 187.458 116.374C187.566 116.379 187.655 116.389 187.727 116.403V117.822C187.661 117.8 187.557 117.78 187.415 117.763C187.276 117.743 187.141 117.733 187.011 117.733C186.729 117.733 186.477 117.794 186.252 117.916C186.03 118.036 185.856 118.202 185.728 118.415C185.6 118.628 185.536 118.874 185.536 119.152V123H183.994ZM189.111 123V116.455H190.654V123H189.111ZM189.887 115.526C189.643 115.526 189.432 115.445 189.256 115.283C189.08 115.118 188.992 114.92 188.992 114.69C188.992 114.457 189.08 114.26 189.256 114.098C189.432 113.933 189.643 113.851 189.887 113.851C190.134 113.851 190.344 113.933 190.518 114.098C190.694 114.26 190.782 114.457 190.782 114.69C190.782 114.92 190.694 115.118 190.518 115.283C190.344 115.445 190.134 115.526 189.887 115.526ZM194.007 120.946L194.002 119.084H194.249L196.602 116.455H198.404L195.511 119.676H195.191L194.007 120.946ZM192.6 123V114.273H194.143V123H192.6ZM196.708 123L194.578 120.021L195.617 118.935L198.553 123H196.708ZM201.676 123.132C201.261 123.132 200.887 123.058 200.555 122.911C200.226 122.76 199.964 122.538 199.771 122.246C199.581 121.953 199.485 121.592 199.485 121.163C199.485 120.794 199.554 120.489 199.69 120.247C199.826 120.006 200.012 119.812 200.248 119.668C200.484 119.523 200.75 119.413 201.045 119.339C201.343 119.263 201.652 119.207 201.97 119.173C202.353 119.134 202.664 119.098 202.903 119.067C203.142 119.033 203.315 118.982 203.423 118.913C203.534 118.842 203.589 118.733 203.589 118.585V118.56C203.589 118.239 203.494 117.99 203.304 117.814C203.113 117.638 202.839 117.55 202.481 117.55C202.103 117.55 201.804 117.632 201.582 117.797C201.363 117.962 201.216 118.156 201.139 118.381L199.699 118.176C199.812 117.778 200 117.446 200.261 117.179C200.522 116.909 200.842 116.707 201.22 116.574C201.598 116.438 202.015 116.369 202.473 116.369C202.788 116.369 203.102 116.406 203.414 116.48C203.727 116.554 204.012 116.676 204.271 116.847C204.53 117.014 204.737 117.243 204.893 117.533C205.052 117.822 205.132 118.185 205.132 118.619V123H203.649V122.101H203.598C203.504 122.283 203.372 122.453 203.201 122.612C203.034 122.768 202.822 122.895 202.566 122.991C202.314 123.085 202.017 123.132 201.676 123.132ZM202.076 121.999C202.386 121.999 202.655 121.937 202.882 121.815C203.109 121.69 203.284 121.526 203.406 121.321C203.531 121.116 203.593 120.893 203.593 120.652V119.881C203.545 119.92 203.463 119.957 203.346 119.991C203.233 120.026 203.105 120.055 202.963 120.081C202.821 120.107 202.68 120.129 202.541 120.149C202.402 120.169 202.281 120.186 202.179 120.2C201.949 120.232 201.743 120.283 201.561 120.354C201.379 120.425 201.235 120.524 201.13 120.652C201.025 120.777 200.973 120.939 200.973 121.138C200.973 121.422 201.076 121.636 201.284 121.781C201.491 121.926 201.755 121.999 202.076 121.999ZM213.277 123.128C212.621 123.128 212.054 122.991 211.577 122.719C211.103 122.443 210.737 122.054 210.482 121.551C210.226 121.045 210.098 120.45 210.098 119.766C210.098 119.092 210.226 118.501 210.482 117.993C210.74 117.482 211.101 117.084 211.564 116.8C212.027 116.513 212.571 116.369 213.196 116.369C213.6 116.369 213.98 116.435 214.338 116.565C214.699 116.693 215.017 116.892 215.293 117.162C215.571 117.432 215.79 117.776 215.949 118.193C216.108 118.608 216.188 119.102 216.188 119.676V120.149H210.823V119.109H214.709C214.706 118.814 214.642 118.551 214.517 118.321C214.392 118.088 214.218 117.905 213.993 117.771C213.772 117.638 213.513 117.571 213.218 117.571C212.902 117.571 212.625 117.648 212.387 117.801C212.148 117.952 211.962 118.151 211.828 118.398C211.698 118.642 211.631 118.911 211.628 119.203V120.111C211.628 120.491 211.698 120.818 211.837 121.091C211.976 121.361 212.171 121.568 212.421 121.713C212.671 121.855 212.963 121.926 213.299 121.926C213.523 121.926 213.726 121.895 213.908 121.832C214.09 121.767 214.247 121.672 214.381 121.547C214.514 121.422 214.615 121.267 214.683 121.082L216.124 121.244C216.033 121.625 215.86 121.957 215.604 122.241C215.351 122.523 215.027 122.741 214.632 122.898C214.237 123.051 213.786 123.128 213.277 123.128ZM217.853 123V116.455H219.327V117.567H219.404C219.54 117.192 219.766 116.899 220.081 116.689C220.397 116.476 220.773 116.369 221.211 116.369C221.654 116.369 222.027 116.477 222.331 116.693C222.638 116.906 222.854 117.197 222.979 117.567H223.047C223.192 117.203 223.437 116.913 223.78 116.697C224.127 116.479 224.537 116.369 225.012 116.369C225.614 116.369 226.106 116.56 226.486 116.94C226.867 117.321 227.057 117.876 227.057 118.607V123H225.51V118.845C225.51 118.439 225.402 118.142 225.187 117.955C224.971 117.764 224.706 117.669 224.394 117.669C224.022 117.669 223.731 117.786 223.52 118.018C223.313 118.249 223.209 118.548 223.209 118.918V123H221.697V118.781C221.697 118.443 221.594 118.173 221.39 117.972C221.188 117.77 220.924 117.669 220.597 117.669C220.375 117.669 220.174 117.726 219.992 117.839C219.81 117.95 219.665 118.108 219.557 118.312C219.449 118.514 219.395 118.75 219.395 119.02V123H217.853ZM230.866 123.132C230.451 123.132 230.077 123.058 229.745 122.911C229.416 122.76 229.154 122.538 228.961 122.246C228.771 121.953 228.675 121.592 228.675 121.163C228.675 120.794 228.744 120.489 228.88 120.247C229.016 120.006 229.202 119.812 229.438 119.668C229.674 119.523 229.94 119.413 230.235 119.339C230.533 119.263 230.842 119.207 231.16 119.173C231.543 119.134 231.854 119.098 232.093 119.067C232.332 119.033 232.505 118.982 232.613 118.913C232.724 118.842 232.779 118.733 232.779 118.585V118.56C232.779 118.239 232.684 117.99 232.494 117.814C232.303 117.638 232.029 117.55 231.671 117.55C231.293 117.55 230.994 117.632 230.772 117.797C230.553 117.962 230.406 118.156 230.329 118.381L228.889 118.176C229.002 117.778 229.19 117.446 229.451 117.179C229.712 116.909 230.032 116.707 230.41 116.574C230.788 116.438 231.205 116.369 231.663 116.369C231.978 116.369 232.292 116.406 232.604 116.48C232.917 116.554 233.202 116.676 233.461 116.847C233.72 117.014 233.927 117.243 234.083 117.533C234.242 117.822 234.322 118.185 234.322 118.619V123H232.839V122.101H232.788C232.694 122.283 232.562 122.453 232.391 122.612C232.224 122.768 232.012 122.895 231.756 122.991C231.504 123.085 231.207 123.132 230.866 123.132ZM231.266 121.999C231.576 121.999 231.845 121.937 232.072 121.815C232.299 121.69 232.474 121.526 232.596 121.321C232.721 121.116 232.783 120.893 232.783 120.652V119.881C232.735 119.92 232.653 119.957 232.536 119.991C232.423 120.026 232.295 120.055 232.153 120.081C232.011 120.107 231.87 120.129 231.731 120.149C231.592 120.169 231.471 120.186 231.369 120.2C231.139 120.232 230.933 120.283 230.751 120.354C230.569 120.425 230.425 120.524 230.32 120.652C230.215 120.777 230.163 120.939 230.163 121.138C230.163 121.422 230.266 121.636 230.474 121.781C230.681 121.926 230.945 121.999 231.266 121.999ZM236.233 123V116.455H237.776V123H236.233ZM237.008 115.526C236.764 115.526 236.554 115.445 236.378 115.283C236.202 115.118 236.114 114.92 236.114 114.69C236.114 114.457 236.202 114.26 236.378 114.098C236.554 113.933 236.764 113.851 237.008 113.851C237.256 113.851 237.466 113.933 237.639 114.098C237.815 114.26 237.903 114.457 237.903 114.69C237.903 114.92 237.815 115.118 237.639 115.283C237.466 115.445 237.256 115.526 237.008 115.526ZM241.264 114.273V123H239.722V114.273H241.264ZM248.431 123.132C248.016 123.132 247.642 123.058 247.31 122.911C246.981 122.76 246.719 122.538 246.526 122.246C246.336 121.953 246.24 121.592 246.24 121.163C246.24 120.794 246.309 120.489 246.445 120.247C246.581 120.006 246.767 119.812 247.003 119.668C247.239 119.523 247.505 119.413 247.8 119.339C248.098 119.263 248.407 119.207 248.725 119.173C249.108 119.134 249.419 119.098 249.658 119.067C249.897 119.033 250.07 118.982 250.178 118.913C250.289 118.842 250.344 118.733 250.344 118.585V118.56C250.344 118.239 250.249 117.99 250.059 117.814C249.868 117.638 249.594 117.55 249.236 117.55C248.858 117.55 248.559 117.632 248.337 117.797C248.118 117.962 247.971 118.156 247.894 118.381L246.454 118.176C246.567 117.778 246.755 117.446 247.016 117.179C247.277 116.909 247.597 116.707 247.975 116.574C248.353 116.438 248.77 116.369 249.228 116.369C249.543 116.369 249.857 116.406 250.169 116.48C250.482 116.554 250.767 116.676 251.026 116.847C251.285 117.014 251.492 117.243 251.648 117.533C251.807 117.822 251.887 118.185 251.887 118.619V123H250.404V122.101H250.353C250.259 122.283 250.127 122.453 249.956 122.612C249.789 122.768 249.577 122.895 249.321 122.991C249.069 123.085 248.772 123.132 248.431 123.132ZM248.831 121.999C249.141 121.999 249.41 121.937 249.637 121.815C249.864 121.69 250.039 121.526 250.161 121.321C250.286 121.116 250.348 120.893 250.348 120.652V119.881C250.3 119.92 250.218 119.957 250.101 119.991C249.988 120.026 249.86 120.055 249.718 120.081C249.576 120.107 249.435 120.129 249.296 120.149C249.157 120.169 249.036 120.186 248.934 120.2C248.704 120.232 248.498 120.283 248.316 120.354C248.134 120.425 247.99 120.524 247.885 120.652C247.78 120.777 247.728 120.939 247.728 121.138C247.728 121.422 247.831 121.636 248.039 121.781C248.246 121.926 248.51 121.999 248.831 121.999ZM255.341 119.165V123H253.798V116.455H255.272V117.567H255.349C255.5 117.2 255.74 116.909 256.069 116.693C256.402 116.477 256.812 116.369 257.301 116.369C257.752 116.369 258.146 116.466 258.481 116.659C258.819 116.852 259.081 117.132 259.265 117.499C259.453 117.865 259.545 118.31 259.542 118.832V123H258V119.071C258 118.634 257.886 118.291 257.659 118.044C257.434 117.797 257.123 117.673 256.725 117.673C256.456 117.673 256.216 117.733 256.005 117.852C255.798 117.969 255.635 118.138 255.515 118.359C255.399 118.581 255.341 118.849 255.341 119.165ZM263.899 123.115C263.385 123.115 262.925 122.983 262.519 122.719C262.112 122.455 261.791 122.071 261.556 121.568C261.32 121.065 261.202 120.455 261.202 119.736C261.202 119.009 261.321 118.395 261.56 117.895C261.801 117.392 262.127 117.013 262.536 116.757C262.945 116.499 263.401 116.369 263.904 116.369C264.287 116.369 264.603 116.435 264.85 116.565C265.097 116.693 265.293 116.848 265.438 117.03C265.583 117.209 265.695 117.378 265.774 117.537H265.838V114.273H267.385V123H265.868V121.969H265.774C265.695 122.128 265.58 122.297 265.429 122.476C265.279 122.652 265.08 122.803 264.833 122.928C264.585 123.053 264.274 123.115 263.899 123.115ZM264.33 121.849C264.657 121.849 264.935 121.761 265.165 121.585C265.395 121.406 265.57 121.158 265.689 120.839C265.808 120.521 265.868 120.151 265.868 119.727C265.868 119.304 265.808 118.936 265.689 118.624C265.573 118.311 265.399 118.068 265.169 117.895C264.942 117.722 264.662 117.635 264.33 117.635C263.986 117.635 263.699 117.724 263.469 117.903C263.239 118.082 263.066 118.33 262.949 118.645C262.833 118.96 262.774 119.321 262.774 119.727C262.774 120.136 262.833 120.501 262.949 120.822C263.068 121.141 263.243 121.392 263.473 121.577C263.706 121.759 263.992 121.849 264.33 121.849ZM271.273 123.132C270.858 123.132 270.484 123.058 270.152 122.911C269.822 122.76 269.561 122.538 269.368 122.246C269.177 121.953 269.082 121.592 269.082 121.163C269.082 120.794 269.15 120.489 269.287 120.247C269.423 120.006 269.609 119.812 269.845 119.668C270.081 119.523 270.346 119.413 270.642 119.339C270.94 119.263 271.248 119.207 271.567 119.173C271.95 119.134 272.261 119.098 272.5 119.067C272.738 119.033 272.912 118.982 273.02 118.913C273.13 118.842 273.186 118.733 273.186 118.585V118.56C273.186 118.239 273.091 117.99 272.9 117.814C272.71 117.638 272.436 117.55 272.078 117.55C271.7 117.55 271.4 117.632 271.179 117.797C270.96 117.962 270.812 118.156 270.736 118.381L269.295 118.176C269.409 117.778 269.596 117.446 269.858 117.179C270.119 116.909 270.439 116.707 270.817 116.574C271.194 116.438 271.612 116.369 272.069 116.369C272.385 116.369 272.699 116.406 273.011 116.48C273.324 116.554 273.609 116.676 273.868 116.847C274.126 117.014 274.334 117.243 274.49 117.533C274.649 117.822 274.729 118.185 274.729 118.619V123H273.246V122.101H273.194C273.101 122.283 272.969 122.453 272.798 122.612C272.63 122.768 272.419 122.895 272.163 122.991C271.91 123.085 271.613 123.132 271.273 123.132ZM271.673 121.999C271.983 121.999 272.251 121.937 272.479 121.815C272.706 121.69 272.88 121.526 273.003 121.321C273.128 121.116 273.19 120.893 273.19 120.652V119.881C273.142 119.92 273.059 119.957 272.943 119.991C272.829 120.026 272.702 120.055 272.559 120.081C272.417 120.107 272.277 120.129 272.138 120.149C271.998 120.169 271.878 120.186 271.775 120.2C271.545 120.232 271.339 120.283 271.157 120.354C270.976 120.425 270.832 120.524 270.727 120.652C270.622 120.777 270.569 120.939 270.569 121.138C270.569 121.422 270.673 121.636 270.88 121.781C271.088 121.926 271.352 121.999 271.673 121.999ZM278.527 114.273L278.387 120.435H277.015L276.878 114.273H278.527ZM277.701 123.094C277.442 123.094 277.221 123.003 277.036 122.821C276.854 122.639 276.763 122.418 276.763 122.156C276.763 121.901 276.854 121.682 277.036 121.5C277.221 121.318 277.442 121.227 277.701 121.227C277.954 121.227 278.172 121.318 278.357 121.5C278.544 121.682 278.638 121.901 278.638 122.156C278.638 122.33 278.594 122.487 278.506 122.629C278.421 122.771 278.307 122.885 278.165 122.97C278.026 123.053 277.871 123.094 277.701 123.094Z" fill="black"/>
</g>
<defs>
<filter id="filter0_d_200_1348" x="0" y="0" width="410" height="192" filterUnits="userSpaceOnUse" color-interpolation-filters="sRGB">
<feFlood flood-opacity="0" result="BackgroundImageFix"/>
<feColorMatrix in="SourceAlpha" type="matrix" values="0 0 0 0 0 0 0 0 0 0 0 0 0 0 0 0 0 0 127 0" result="hardAlpha"/>
<feOffset dy="4"/>
<feGaussianBlur stdDeviation="2"/>
<feComposite in2="hardAlpha" operator="out"/>
<feColorMatrix type="matrix" values="0 0 0 0 0 0 0 0 0 0 0 0 0 0 0 0 0 0 0.25 0"/>
<feBlend mode="normal" in2="BackgroundImageFix" result="effect1_dropShadow_200_1348"/>
<feBlend mode="normal" in="SourceGraphic" in2="effect1_dropShadow_200_1348" result="shape"/>
</filter>
</defs>
</svg>
