<svg width="26" height="26" viewBox="0 0 26 26" fill="none" xmlns="http://www.w3.org/2000/svg">
<path d="M15.1666 11.9166H8.66665M10.8333 16.25H8.66665M17.3333 7.58329H8.66665M21.6666 7.36663V18.6333C21.6666 20.4535 21.6666 21.3635 21.3124 22.0588C21.0008 22.6703 20.5036 23.1675 19.8921 23.4791C19.1969 23.8333 18.2868 23.8333 16.4666 23.8333H9.53331C7.71314 23.8333 6.80306 23.8333 6.10784 23.4791C5.49632 23.1675 4.99913 22.6703 4.68754 22.0588C4.33331 21.3635 4.33331 20.4535 4.33331 18.6333V7.36663C4.33331 5.54646 4.33331 4.63637 4.68754 3.94116C4.99913 3.32963 5.49632 2.83244 6.10784 2.52085C6.80306 2.16663 7.71314 2.16663 9.53331 2.16663H16.4666C18.2868 2.16663 19.1969 2.16663 19.8921 2.52085C20.5036 2.83244 21.0008 3.32963 21.3124 3.94116C21.6666 4.63637 21.6666 5.54646 21.6666 7.36663Z" stroke="white" stroke-width="2" stroke-linecap="round" stroke-linejoin="round"/>
</svg>
