<svg width="26" height="26" viewBox="0 0 26 26" fill="none" xmlns="http://www.w3.org/2000/svg">
<path d="M20.5834 22.75V16.25M17.3334 19.5H23.8334M13 16.25H8.66669C6.64761 16.25 5.63807 16.25 4.84173 16.5799C3.77994 17.0197 2.93635 17.8633 2.49654 18.925C2.16669 19.7214 2.16669 20.7309 2.16669 22.75M16.7917 3.56499C18.3798 4.20782 19.5 5.76475 19.5 7.58333C19.5 9.40191 18.3798 10.9588 16.7917 11.6017M14.625 7.58333C14.625 9.97657 12.6849 11.9167 10.2917 11.9167C7.89845 11.9167 5.95835 9.97657 5.95835 7.58333C5.95835 5.1901 7.89845 3.25 10.2917 3.25C12.6849 3.25 14.625 5.1901 14.625 7.58333Z" stroke="#79B8DB" stroke-width="2" stroke-linecap="round" stroke-linejoin="round"/>
</svg>
