<svg width="26" height="26" viewBox="0 0 26 26" fill="none" xmlns="http://www.w3.org/2000/svg">
<path d="M21.6666 22.75C21.6666 21.2381 21.6666 20.4822 21.4801 19.8671C21.0599 18.4822 19.9762 17.3984 18.5912 16.9783C17.9761 16.7917 17.2202 16.7917 15.7083 16.7917H10.2917C8.77979 16.7917 8.02385 16.7917 7.40874 16.9783C6.02381 17.3984 4.94002 18.4822 4.51991 19.8671C4.33331 20.4822 4.33331 21.2381 4.33331 22.75M17.875 8.125C17.875 10.8174 15.6924 13 13 13C10.3076 13 8.12498 10.8174 8.12498 8.125C8.12498 5.43261 10.3076 3.25 13 3.25C15.6924 3.25 17.875 5.43261 17.875 8.125Z" stroke="white" stroke-width="2" stroke-linecap="round" stroke-linejoin="round"/>
</svg>
